<?xml version="1.0" encoding="UTF-8"?><svg id="_レイヤー_2" xmlns="http://www.w3.org/2000/svg" viewBox="0 0 187.43 73.64"><defs><style>.cls-1{fill:#f2b227;}.cls-2{fill:#e67928;}.cls-3{fill:#606362;}</style></defs><g id="_レイヤー_1-2"><g><path class="cls-3" d="M61.02,70.4h-1.71v-4.09c0-1.04-.26-1.72-.96-1.72-.48,0-1.03,.41-1.03,1.43v4.39h-1.71v-4.27c0-.86-.25-1.54-.93-1.54-.48,0-1.05,.49-1.05,1.47v4.35h-1.71v-5.05c0-.84-.02-1.53-.05-2.17h1.49l.08,.96h.04c.31-.52,.89-1.12,1.86-1.12,.8,0,1.42,.47,1.68,1.21h.02c.54-.88,1.22-1.21,1.95-1.21,1.14,0,2.03,.9,2.03,2.99v4.39Z"/><path class="cls-3" d="M64.02,62.23c-.55,0-.93-.44-.93-1.02s.39-1.03,.93-1.03,.94,.43,.94,1.03-.4,1.02-.94,1.02Zm.88,8.18h-1.75v-7.23h1.75v7.23Z"/><path class="cls-3" d="M72.5,63.18l-1.49,5.02c-.73,2.34-1.29,3.61-2.03,4.42-.64,.68-1.31,.94-1.7,1.01l-.44-1.62c.28-.09,.61-.3,.92-.53,.58-.46,.87-1.2,.87-1.34,0-.08-.02-.18-.07-.33l-2.21-6.65h1.91l.97,3.78c.11,.44,.22,.95,.31,1.35h.04c.07-.39,.18-.9,.27-1.35l.83-3.78h1.82Z"/><path class="cls-3" d="M78.84,68.69c0,.64,.02,1.27,.09,1.71h-1.57l-.11-.75h-.04c-.38,.57-1.01,.89-1.75,.89-1.22,0-1.97-1-1.97-2.17,0-1.86,1.5-2.73,3.59-2.73,0-.71-.22-1.26-1.18-1.26-.6,0-1.19,.21-1.62,.49l-.33-1.25c.44-.29,1.25-.61,2.28-.61,2.04,0,2.6,1.43,2.6,3.01v2.65Zm-1.7-1.8c-.94,0-1.92,.25-1.92,1.3,0,.69,.39,.99,.83,.99s1.1-.33,1.1-1.25v-1.04Z"/><path class="cls-3" d="M85.49,63.18v1.21l-2.04,3.22c-.29,.44-.6,.87-.88,1.23v.03h3v1.54h-5.1v-1.14l2.11-3.3c.3-.44,.58-.83,.86-1.21v-.04h-2.75v-1.55h4.8Z"/><path class="cls-3" d="M92.12,68.69c0,.64,.02,1.27,.09,1.71h-1.57l-.11-.75h-.04c-.38,.57-1.01,.89-1.75,.89-1.22,0-1.97-1-1.97-2.17,0-1.86,1.5-2.73,3.59-2.73,0-.71-.22-1.26-1.18-1.26-.6,0-1.19,.21-1.62,.49l-.33-1.25c.44-.29,1.25-.61,2.28-.61,2.04,0,2.6,1.43,2.6,3.01v2.65Zm-1.7-1.8c-.94,0-1.92,.25-1.92,1.3,0,.69,.39,.99,.83,.99,.41,0,1.1-.33,1.1-1.25v-1.04Z"/><path class="cls-3" d="M100.09,70.4h-2.08l-1.53-3.09-.46,.69v2.4h-1.75v-10.44h1.75v6.36h.04c.14-.33,.28-.62,.44-.9l1.31-2.26h2.03l-2.15,2.97,2.41,4.26Z"/><path class="cls-3" d="M102.21,62.23c-.55,0-.93-.44-.93-1.02s.39-1.03,.93-1.03,.94,.43,.94,1.03-.4,1.02-.94,1.02Zm.88,8.18h-1.75v-7.23h1.75v7.23Z"/><path class="cls-3" d="M115.05,70.02c-.53,.22-1.56,.49-2.58,.49-1.38,0-2.43-.39-3.2-1.22-.78-.84-1.23-2.2-1.23-3.79,0-3.37,2.04-5.18,4.65-5.18,.92,0,1.69,.18,2.12,.41l-.37,1.58c-.41-.21-.93-.37-1.74-.37-1.62,0-2.84,1.09-2.84,3.5s1.12,3.48,2.62,3.48c.42,0,.74-.06,.9-.14v-2.44h-1.31v-1.52h2.97v5.18Z"/><path class="cls-3" d="M122.54,63.18l-1.49,5.02c-.73,2.34-1.29,3.61-2.03,4.42-.64,.68-1.31,.94-1.7,1.01l-.44-1.62c.28-.09,.61-.3,.92-.53,.58-.46,.87-1.2,.87-1.34,0-.08-.02-.18-.07-.33l-2.21-6.65h1.91l.97,3.78c.11,.44,.22,.95,.31,1.35h.04c.07-.39,.18-.9,.27-1.35l.83-3.78h1.82Z"/><path class="cls-3" d="M129.71,66.73c0,2.75-1.6,3.82-3.07,3.82-1.77,0-3.04-1.38-3.04-3.72s1.33-3.8,3.12-3.8,3,1.52,3,3.71Zm-3.03-2.3c-.97,0-1.31,1.25-1.31,2.35,0,1.28,.45,2.35,1.3,2.35s1.27-1.08,1.27-2.36c0-1.13-.37-2.33-1.26-2.33Z"/><path class="cls-3" d="M136.07,63.18v1.21l-2.04,3.22c-.29,.44-.6,.87-.89,1.23v.03h3v1.54h-5.1v-1.14l2.11-3.3c.29-.44,.58-.83,.86-1.21v-.04h-2.75v-1.55h4.8Z"/><path class="cls-3" d="M142.7,68.69c0,.64,.02,1.27,.09,1.71h-1.57l-.11-.75h-.04c-.38,.57-1.01,.89-1.75,.89-1.22,0-1.97-1-1.97-2.17,0-1.86,1.5-2.73,3.59-2.73,0-.71-.22-1.26-1.18-1.26-.6,0-1.19,.21-1.62,.49l-.33-1.25c.44-.29,1.25-.61,2.28-.61,2.04,0,2.6,1.43,2.6,3.01v2.65Zm-1.7-1.8c-.94,0-1.92,.25-1.92,1.3,0,.69,.39,.99,.83,.99,.41,0,1.1-.33,1.1-1.25v-1.04Z"/></g><path class="cls-3" d="M19.04,30.78c.07,.04,.13,.06,.15,.09,.15,.25,.33,.33,.62,.21,.3-.12,.58-.06,.81,.25-.45,.91-.94,1.81-1.35,2.76-.41,.95-.73,1.93-1.1,2.91,.3,.22,.6,.17,.88,.13,1.22-.15,2.43-.33,3.66-.47,.62-.07,1.21-.19,1.81-.33,.31-.07,.63-.08,.95-.12,.2-.03,.4-.03,.59-.08,.67-.16,1.34-.33,2.01-.49,1.49-.36,2.98-.66,4.5-.83,.27-.03,.54-.06,.8-.12,.84-.18,1.67,0,2.5,.03,1.11,.05,2.2,.24,3.28,.54,.48,.13,.78,.38,.86,.79,.09,.48,.37,.79,.71,1.08,.43,.37,.7,.83,.8,1.38,.12,.65,.3,1.31,.3,1.97,0,.83-.01,1.67-.33,2.47-.13,.34-.15,.72-.21,1.09-.03,.19-.05,.39-.07,.59-.04,.36-.2,.67-.51,.87-.32,.2-.48,.45-.53,.83-.09,.6-.46,1.03-1,1.29-.42,.2-.86,.37-1.29,.54-.53,.21-1.05,.42-1.58,.61-.18,.07-.38,.11-.58,.11-1.55,.03-3.1,.06-4.64-.21-.89-.16-1.81-.2-2.72-.22-.62-.02-1.23-.06-1.84-.11-.71-.07-1.42-.18-2.14-.08-.17,.02-.34-.01-.51-.04-.9-.16-1.81-.27-2.69-.49-.77-.18-1.56-.19-2.31-.4-.21-.06-.42-.12-.64-.18-.16-.05-.33-.13-.49-.15-.45-.04-.86-.2-1.27-.38-.95-.41-1.9-.79-2.84-1.22-.62-.28-1.21-.2-1.79,.02-.23,.08-.41,.14-.62-.02-.04-.03-.09-.05-.14-.05-.53,.04-.81-.26-.98-.71-.01-.04-.08-.06-.11-.09-.23,.05-.47,.14-.7,.15-.21,0-.42-.09-.65-.14-.22-.45-.25-.96-.26-1.47,0-.27-.1-.42-.3-.54-.12-.08-.26-.14-.39-.2-.38-.19-.38-.19-.64-.68,.3-.15,.6-.27,.96-.17,.15,.04,.33-.03,.51-.05,.51-1.14,.99-2.27,1.77-3.29,.1,.09,.18,.17,.3,.27,.45-.35,.66-.99,1.34-1.16,.13,.1,.3,.23,.46,.35,.05-.02,.1-.03,.14-.06,.24-.16,.54-.27,.71-.49,.18-.22,.24-.53,.35-.81,.28-.71,.5-1.46,.84-2.13,.64-1.25,1.32-2.48,2.31-3.5,.07-.07,.11-.16,.19-.29-.2-.07-.38-.11-.55-.18-.16-.07-.29-.19-.45-.25-.13-.05-.29-.08-.43-.07-.37,.03-.6-.14-.78-.45-.2-.34-.42-.66-.65-1.03-.26,.08-.51,.16-.81,.25-.05-.13-.11-.23-.12-.33-.04-.27-.06-.54-.08-.81-.01-.28-.11-.53-.28-.75-.38-.48-.41-1.04-.42-1.61,0-.32,.04-.65,0-.96-.16-.97-.13-1.92,.07-2.87,.16-.78,.18-1.57,.07-2.36-.09-.59,0-1.14,.27-1.64,.34-.62,.48-1.35,.98-1.9,.08-.09,.07-.27,.1-.4,.4-.08,.73,.09,1.01,.24,.43,.22,.81,.15,1.21,.01,.42-.14,.82-.31,1.25-.47,.47,.31,.99,.31,1.5,.26,.79-.07,1.56,.01,2.34,.08,.37,.03,.74-.01,1.1-.01,.22,0,.45-.03,.66,0,.22,.03,.43,.1,.68,.17,.07,.12,.15,.27,.22,.4,.55,.15,.99-.29,1.51-.24-.1-.04-.21-.07-.31-.1-.04-.15,.07-.18,.16-.19,.61-.12,1.22-.11,1.84-.09,.71,.02,1.43,0,2.26,0-.58-.28-1.1-.3-1.59-.38-.58-.09-1.15-.2-1.75,.04-.23,.09-.53,.02-.8,0-.24-.02-.49-.07-.73-.13-.37-.08-.72-.05-1.09,.03-.41,.09-.83,.13-1.24,.14-.57,.02-1.14,.04-1.7,0-.91-.07-1.81-.19-2.72-.28-.64-.07-1.28-.13-1.91-.2-.32-.04-.63-.1-.94-.16-.72-.15-1.44-.32-2.16-.47-.24-.05-.48-.08-.61,.34,0-.29-.05-.41-.23-.44-.46-.07-.93-.12-1.38-.22-.7-.15-1.39-.32-2.07-.53-.36-.11-.67-.12-.97,.14-.43,.38-.93,.54-1.5,.46-.07,0-.14,.03-.21,.05-.02,0-.04,.02-.1,.05-.02,.11-.08,.25-.08,.39,.02,.77,.07,1.53,.08,2.29,.01,.59,0,1.18-.01,1.77-.01,.42-.07,.84-.09,1.25-.04,.89-.06,1.77-.12,2.66-.04,.69-.22,1.36-.46,2.01-.06,.16-.16,.31-.25,.45-.1,.14-.24,.26-.32,.41-.1,.2-.15,.42-.24,.68-.41,.15-.55,.65-.93,.92-.08,.05-.1,.21-.13,.33-.09,.38-.31,.55-.66,.5-.1-.01-.19-.04-.29-.08-.24-.08-.47-.1-.72-.03-.53,.16-.9-.12-1.22-.5-.13-.15-.1-.32-.06-.49,.2-.79,.26-1.6,.38-2.4,.1-.66,.12-1.33,.12-1.99,0-.42,.05-.83,.1-1.25,.06-.56,.03-1.13-.02-1.69-.03-.32,0-.63,.02-.95,.06-.76,.24-1.5,.33-2.26,.02-.19,.01-.39,.02-.59,.03-.58,.09-1.16,.35-1.7,.06-.13,.07-.29,.09-.43,.04-.24,.06-.48,.27-.67,.09-.09,.11-.26,.16-.4,.15-.39,.26-.8,.55-1.12,.07-.07,.11-.2,.19-.22,.45-.14,.65-.58,1.02-.85,.52,.43,1.12,.41,1.66,.11,.59-.32,1.21-.42,1.84-.52,.46-.07,.93-.11,1.4-.13,.61-.03,1.22,0,1.83,.09,1.8,.28,3.61,.47,5.42,.69,.81,.1,1.61,.17,2.42,.26,.24,.03,.48,.07,.72,.13,.53,.12,.98,.13,1.58,0-.04-.55-.14-1.11-.1-1.67,.03-.56,.2-1.11,.3-1.65q.41-.17,1.13-.07c.07,.2,.14,.43,.23,.7,.17-.15,.3-.31,.47-.42,.19-.11,.41-.17,.64-.26,.25,.14,.5,.23,.8,0,.12-.09,.37-.02,.6-.02,.12,.54,.21,1.04,.34,1.54,.13,.5-.04,1.03,.12,1.52,.15,.04,.25,.08,.34,.07,.82-.04,1.62,.14,2.42,.28,.29,.05,.58,.08,.88,.12,1.19,.16,2.39,.3,3.58,.53,1.13,.22,2.28,.39,3.43,.54,.95,.13,1.91,.21,2.86,.3,.71,.07,1.42,.1,2.14,0,.24-.04,.49-.01,.74-.03,.79-.06,1.58-.09,2.36-.19,.56-.07,1.11-.22,1.65-.37,.23-.06,.44-.05,.65,.01,.5,.16,.96,.38,1.24,.86,.09,.15,.21,.28,.31,.42,.34,.46,.57,.96,.66,1.54,.15,.88,.2,1.76,.18,2.65-.02,1.09,.06,2.17,.14,3.25,.04,.49,.04,.99,.03,1.48,0,.81-.02,1.62,.05,2.44,.05,.64,.01,1.28,0,1.92-.02,.51-.19,.96-.66,1.25-.26,.16-.43,.4-.48,.71-.04,.24-.17,.4-.42,.46-.21,.05-.31,.22-.4,.4-.09,.17-.21,.33-.33,.49-.39,.5-1.15,.56-1.62,.13-.2-.18-.28-.41-.18-.67,.12-.3,.17-.61,.16-.93-.18-.11-.35-.19-.5-.3-.13-.1-.24-.23-.35-.35,0-.59,.02-1.17,.16-1.75,.17-.68,.1-1.37,.11-2.06,0-1.01,.01-2.02,0-3.03-.01-.61-.09-1.23-.11-1.84,0-.27,.05-.54,.09-.8,.06-.39,.06-.78-.04-1.21-.63-.08-1.24,.04-1.84,.04-.59,0-1.18,.07-1.77,.08-.62,.02-1.23,.01-1.85,0-.59-.02-1.18-.03-1.77-.08-.61-.06-1.21-.17-1.83-.17,.2,.05,.4,.12,.6,.15,.41,.07,.83,.1,1.24,.2,.66,.15,1.04,.61,1.12,1.29,.02,.17,.01,.35,.01,.52-.01,1.48-.04,2.96-.03,4.44,0,.84-.17,1.66-.24,2.5-.02,.27-.08,.54-.13,.8-.2,.99-.58,1.88-1.43,2.5-.23,.17-.42,.42-.57,.67-.33,.57-.73,1.05-1.34,1.32-.14,.06-.27,.13-.39,.21-.45,.28-.94,.39-1.48,.37-.89-.03-1.77,0-2.66,0-.12,0-.25,.02-.37,0-.97-.24-1.97-.1-2.94-.25-.39-.06-.78-.02-1.18,.06-.66,.13-1.33,.1-1.99,.01-.2-.02-.39-.08-.58-.08-1.23,.01-2.46-.09-3.68-.2-.2-.02-.39-.04-.57,.09-.1,.07-.19,.26-.12,.3,.07,.05,.18,.08,.26,.05,.16-.04,.31-.13,.45-.19m14.29-11.42s-.08-.07-.12-.1c-.36-.19-.73-.28-1.14-.26-.76,.03-1.53,.03-2.29,.05-.32,0-.63,.04-.95,.04-1.06-.02-2.12-.05-3.18-.07-.12,0-.25,0-.36,.04-.39,.13-.79,.1-1.17,.03-.49-.08-.98-.08-1.47-.08-1.16,0-2.31-.09-3.46-.27-.29-.04-.59-.07-.88-.09-.29-.02-.59,0-.9,.18-.08,.66-.27,1.33-.24,2.03,.04,.91,.09,1.82,.17,2.73,.05,.62,.12,1.23,.04,1.84-.05,.4,.09,.6,.47,.71,.14,.04,.29,.06,.44,.09,1.16,.21,2.34,.34,3.51,.42,.32,.02,.65,.05,.96,0,.62-.11,1.22,.07,1.84,.07,.11,0,.23,.07,.33,.14,.53,.37,1.09,.41,1.67,.13,.11-.05,.24-.08,.36-.08,.74-.02,1.47,0,2.21,.05,.98,.07,1.97,.06,2.95,.09,.33,0,.56-.16,.74-.42,.1-.14,.19-.29,.25-.45,.38-.92,.58-1.89,.58-2.88,0-.88-.08-1.76-.11-2.65-.01-.45-.09-.88-.26-1.28M14.71,42.86c.18,.07,.35,.17,.54,.21,.9,.19,1.74,.54,2.62,.77,1.09,.29,2.19,.55,3.3,.78,.53,.11,1.07,.15,1.58,.33,.16,.06,.34,.12,.5,.1,.46-.06,.89,.08,1.31,.2,.42,.12,.84,.14,1.24,.01,.58-.19,1.17-.22,1.75-.19,1.23,.05,2.46,.15,3.69,.2,.74,.03,1.48,.03,2.22,.02,.19,0,.39-.06,.58-.12,.8-.27,1.58-.55,2.38-.82,.25-.08,.36-.24,.38-.48,.04-.34,.06-.69,.09-1.03,.11-1.2,.25-2.41,.06-3.62-.05-.34-.09-.69-.17-1.02-.1-.39-.3-.52-.7-.47-.96,.12-1.91,.26-2.86,.37-1.28,.14-2.51,.5-3.73,.86-1.19,.36-2.39,.58-3.63,.59-.57,0-1.13,.08-1.64,.37-.26,.15-.55,.18-.85,.21-.54,.04-1.07,.13-1.61,.2-.34,.05-.68,.1-1.02,.15-.39,.06-.77,.11-1.11,.35-.44,.3-.94,.53-1.36,.87-.25,.2-.54,.35-.82,.49-.27,.13-.55-.03-.61-.33-.05-.25-.03-.5,.09-.72,.08-.16,.13-.32,.07-.49-.02-.06-.08-.14-.13-.16-.09-.02-.23-.02-.27,.04-.12,.15-.22,.33-.28,.51-.12,.37-.35,.65-.66,.86-.04,.03-.09,.02-.15,.03-.21-.05-.11-.47-.49-.36-.18,.38-.3,.78-.29,1.28M25.97,15.36c.32,.21,.59,.21,.86,.21,.74,0,1.48,0,2.22,0,.2,0,.39,0,.59-.02,.44-.03,.88-.05,1.32-.09,.24-.02,.5,.07,.75-.12-.3-.08-.58-.18-.86-.25-.19-.04-.4-.09-.58-.04-.49,.13-.98,.1-1.47,.1-.91,0-1.82,.02-2.83,.2m-17.35-3.19c-.63-.35-.93-.4-1.37-.26-.12,.04-.22,.1-.19,.26h1.56Zm29.22,27.27c.02-.52,.14-1.01-.2-1.44,0,.43,.03,.86,.07,1.28,0,.04,.05,.07,.12,.16m-.2,3.85c.04-.41,.04-.65,.09-.88,.06-.26,.21-.49,.08-.8-.21,.51-.24,.82-.18,1.68"/><g><path class="cls-3" d="M70.88,28.22c-.21,.14-.33,.23-.45,.31-.08-.02-.15-.01-.2-.04-.37-.23-.79-.24-1.21-.24-.22,0-.43-.04-.65-.06-.14-.01-.28-.02-.41-.03-.37-.03-.75-.04-1.13-.08-.26-.03-.51-.03-.76,.07-.55,.2-1.09,.17-1.61-.11-.1-.05-.22-.09-.33-.13-.52-.2-.6-.19-.98,.18-.36-.39-.53-.83-.49-1.27,.02-.18-.03-.31-.18-.4-.21-.13-.43-.27-.66-.41-.08-.27,0-.5,.14-.76,.35-.66,.94-.93,1.61-1.08,.17-.04,.34-.09,.5-.17,.19-.1,.4-.16,.61-.21,.15-.04,.31-.04,.47-.05,1.29-.1,2.58-.14,3.87-.14,.48,0,.95-.04,1.42-.05,.41,0,.83,.04,1.24,.05,.36,.01,.71,0,1.1,0,.13-.06,.19-.21,.23-.37,.04-.15,.06-.31,.11-.46,.04-.14,.14-.25,.3-.25,.35-.01,.71-.04,1.09,.03,.01,.44,.39,.62,.62,.9,.07,.08,.2,.12,.31,.13,.26,.02,.52,.03,.77,0,1.19-.11,2.37-.25,3.56-.17,1.09,.08,2.18,.07,3.27,.08,.12,0,.24,.02,.35,.04,.23,.03,.47,.08,.7,.11,.44,.05,.52,.14,.52,.59,0,.08,.01,.16,.05,.22,.26,.42,.3,.85,.12,1.3-.09,.23-.19,.44,0,.67,.04,.05,0,.19-.04,.28-.05,.1-.13,.19-.2,.29,.05,.14,.09,.26,.13,.37-.04,.05-.06,.1-.09,.11-.32,.17-.66,.23-1.02,.27-.58,.07-1.15,.03-1.72,0-.38-.02-.75,0-1.13,.08-.29,.06-.59,.06-.89,.08-.77,.05-1.54,.11-2.32,.13-.5,0-.99,.06-1.49,.14-.04,.34,.09,.57,.37,.74,.55,.35,1.09,.73,1.63,1.09,.45,.3,.86,.64,1.22,1.04,.75,.82,1.6,1.54,2.53,2.15,.71,.47,1.43,.93,2.19,1.32,.53,.27,1.02,.61,1.52,.94,1.47,.97,2.71,2.19,3.93,3.45,.16,.17,.3,.37,.45,.56,.12,.16,.2,.34,.21,.55,0,.06,.01,.12,.02,.18,.05,.33,.22,.53,.57,.58,.31,.04,.62,.12,.93,.17,.35,.05,.54,.2,.65,.58,.12,.43,.13,.9,.39,1.3,.07,.1,.04,.27,.03,.41,0,.75-.02,1.51-.04,2.26,0,.12-.02,.24-.05,.35-.22,.68-.32,1.39-.39,2.1-.11,1.15-.4,2.26-.71,3.37-.02,.08-.04,.17-.09,.22-.43,.38-.51,.91-.64,1.43-.06,.26-.21,.47-.41,.64-.17,.14-.34,.29-.54,.37-.41,.17-.76,.43-1.13,.65-.93,.55-1.94,.9-2.96,1.24-.13,.04-.27,.07-.41,.09-.5,.04-.97,.19-1.44,.36-.13,.05-.27,.09-.4,.09-.83,.01-1.67,0-2.5,0-.1,0-.19-.03-.29-.04-.03-.07-.08-.12-.08-.17-.03-.4-.19-.69-.63-.74-.02,0-.04-.01-.05-.02-.49-.24-.55-.44-.23-.88,.25-.33,.52-.64,.92-.83,.34-.16,.64-.39,.96-.6,.03-.01,.02-.07,.04-.14-.06-.02-.12-.08-.19-.08-.34,0-.67-.04-1-.14-.07-.02-.16-.03-.24-.03-.79,0-1.51-.32-2.23-.57-.22-.08-.44-.19-.64-.31-.4-.25-.84-.35-1.3-.35-.33,0-.61,.08-.87,.31-.26,.23-.59,.4-.89,.6-.21-.13-.4-.26-.65-.42,0-.19-.03-.43-.02-.66,0-.27-.08-.48-.33-.58-.29-.12-.37-.34-.37-.62,0-.38-.03-.75,.08-1.12,.14-.48,.17-.97,.15-1.47-.02-.54-.02-1.07,0-1.61,0-.34,.04-.67,.08-1.01,.04-.34,.12-.68-.18-.94,.08-.2,.15-.36,.22-.53-.06-.04-.11-.09-.15-.09-.18,0-.35,.01-.53,.03-.47,.06-.92,.16-1.41-.01-.32-.12-.68-.16-1.04,.05-.22,.13-.47,.06-.7-.15-.25-.25-.46-.49-.48-.86-.13-.06-.25-.12-.38-.18-.16-.07-.24-.2-.22-.38,.02-.18,.09-.31,.26-.36,.56-.16,1.06-.44,1.56-.72,.08-.05,.18-.08,.28-.09,.41-.08,.82-.16,1.23-.23,.22-.03,.43-.05,.65-.07,.06,0,.12,0,.18,0,1.03-.28,2.09-.19,3.13-.2,1.61-.02,3.22,.03,4.83,.02,1.13,0,2.26,.11,3.38,.23,.43,.05,.87,.07,1.3,.11,.39,.04,.79,.08,1.18,.16,.39,.09,.78,.05,1.16,.05,.08-.15,0-.22-.07-.28-.35-.32-.71-.64-1.07-.95-.03-.03-.06-.06-.1-.07-.66-.17-1.11-.67-1.68-.99-.85-.47-1.67-1-2.47-1.56-.89-.63-1.68-1.39-2.47-2.14-.53-.5-1.08-.99-1.64-1.47-.25-.22-.54-.41-.82-.59-.58-.39-1.11-.83-1.47-1.45-.16-.28-.32-.55-.49-.82-.06-.09-.13-.18-.24-.32-.14,.33-.26,.6-.37,.87-.36,.84-.66,1.71-1.15,2.48-.13,.22-.33,.39-.48,.6-.27,.37-.54,.73-.78,1.12-.43,.69-.87,1.38-1.4,2-.17,.19-.32,.4-.46,.62-.43,.71-1.03,1.25-1.64,1.79-.09,.08-.18,.15-.26,.24-.53,.6-1.2,1.04-1.84,1.5-.32,.24-.67,.43-.99,.67-.65,.48-1.39,.77-2.17,.94-.4,.09-.82,.13-1.23,.19-.19,.02-.39,.04-.59,.07,0-.07-.01-.14-.02-.23-.2-.09-.47-.02-.65-.22-.06-.06-.23-.02-.34-.04-.09-.02-.19-.05-.27-.09-.08-.05-.13-.14-.21-.18-.06-.03-.14-.02-.21-.03,.02-.11,.04-.19,.05-.26-.26-.2-.52-.35-.86-.26-.08-.12-.14-.22-.22-.3-.08-.09-.17-.16-.29-.27,.13-.09,.23-.18,.35-.24,.79-.38,1.57-.75,2.36-1.13,.07-.04,.14-.08,.22-.1,.97-.35,1.73-1.04,2.58-1.58,.05-.03,.1-.07,.13-.12,.39-.53,.96-.89,1.41-1.35,.4-.42,.76-.87,1.14-1.3,.43-.49,.87-.98,1.3-1.47,.09-.1,.21-.19,.28-.31,.42-.67,.85-1.34,1.25-2.02,.18-.3,.31-.64,.45-.96,.19-.43,.39-.87,.57-1.31,.12-.31,.22-.63,.32-.96,.02-.06-.03-.13-.06-.28m5.5,21.47c.08,.04,.16,.1,.25,.13,.25,.07,.49,.14,.75,.2,.5,.11,1,.25,1.51,.3,.89,.08,1.77,.22,2.65,.34,.48,.07,.94,.08,1.42-.02,.57-.12,.97-.46,1.19-.97,.17-.4,.28-.83,.39-1.25,.1-.36,.15-.74,.23-1.11,.06-.27,.09-.54,0-.82-.09-.02-.16-.04-.24-.04-.8,.02-1.58-.15-2.36-.26-1.27-.18-2.54-.45-3.83-.47-.73-.01-1.46,0-2.2,0-.05,0-.1,.05-.17,.09,.03,.1,.03,.2,.08,.28,.22,.35,.27,.74,.29,1.14,.02,.36,.03,.71,.03,1.07,0,.45,0,.91,0,1.39m10.82,1.25c.47-.25,.85-.43,1.2-.65,.31-.19,.55-.45,.7-.79,.24-.57,.44-1.15,.51-1.76,.07-.59,.12-1.18,.21-1.77,.05-.33,.15-.66,.21-.99,.05-.27,.12-.53,.07-.79-.08-.03-.11-.05-.15-.05-.96,.04-1.9-.08-2.85-.18-.28-.03-.55-.06-.83-.09-.73-.08-1.46-.16-2.19-.24-.49-.06-.98-.12-1.47-.17-.49-.05-.99-.08-1.48-.14-.39-.04-.79-.13-1.18-.14-1.17-.04-2.34-.05-3.51-.07-.1,0-.2,.01-.3,.02-.47,.07-.94,.13-1.41,.21-.02,0-.04,.05-.07,.11,.4,.02,.79,.06,1.18,.07,.81,.02,1.62,.08,2.44,.16,.37,.04,.75,.05,1.13,.08,.16,.01,.32,.03,.47,.04,.79,.06,1.58,.12,2.37,.17,.48,.04,.96,.03,1.43,.09,.51,.07,1.01,.19,1.52,.3,.37,.08,.67,.24,.73,.68,.03,.21,.17,.34,.38,.41,.22,.08,.43,.2,.63,.29,.08,.43,.09,.43,.34,.76,.17,.22,.33,.45,.46,.68,.11,.19,.18,.39,.14,.62-.13,.84-.26,1.68-.52,2.5-.05,.16-.08,.33-.15,.62m2.37-10.3s.03-.07,.02-.09c-.01-.03-.05-.04-.08-.05,0,.03-.04,.07-.02,.1,0,.02,.05,.03,.08,.04"/><path class="cls-3" d="M51.75,39.96c-.12-.33-.22-.57-.29-.83-.14-.48-.19-.97-.06-1.46,.09-.35,.06-.67-.17-.98-.21-.28-.28-.62-.27-.98,.02-.57,0-1.13,0-1.7,0-.15,0-.3,.03-.44,.12-.38,.12-.78,.09-1.17-.04-.43,.04-.83,.31-1.18,.15-.19,.24-.43,.34-.65,.05-.11,.1-.26,.06-.35-.19-.42,0-.76,.21-1.1,.03-.04,.05-.08,.11-.16,.19-.07,.42-.14,.65-.21,.45,.29,.7,.64,.68,1.17-.04,1.22,.24,2.4,.5,3.57,.01,.05,.02,.1,.04,.14,.3,.78,.33,1.58,.22,2.4-.03,.24,.01,.49,.06,.73,.17,.89-.12,1.71-.4,2.52-.05,.14-.23,.24-.36,.35-.14,.12-.14,.11-.27,.39,.29,.09,1.25,.23,1.42,.18,.11-.03,.24-.11,.28-.2,.09-.2,.16-.42,.19-.63,.07-.56,.1-1.13,.15-1.69,0-.12-.02-.25,.01-.37,.25-1.09,.04-2.15-.15-3.22-.14-.76-.1-1.53,.02-2.28,.09-.58,.48-1.02,.85-1.45,.14-.17,.43-.06,.45,.15,.02,.17,0,.34-.02,.51-.04,.42-.02,.84,.16,1.23,.49,1.07,.59,2.24,.76,3.38,.17,1.1,.17,2.21,.14,3.32-.02,.54-.07,1.08-.13,1.62-.04,.38,0,.74,.22,1.06,.15,.21,.17,.45,.17,.7,0,.56-.19,1.06-.43,1.55-.12,.25-.32,.41-.58,.55-.43,.23-.86,.33-1.34,.29-.32-.02-.64-.01-.96,.01-.42,.03-.83,.13-1.25,.15-.39,.02-.79-.03-1.18-.07-.24-.02-.49-.05-.73-.11-.59-.16-1.16-.13-1.75-.02-.59,.12-1.18,.1-1.71-.25-.12-.08-.25-.16-.39-.22-.47-.19-.67-.57-.71-1.04-.04-.49-.06-.99-.04-1.48,.03-.74,.13-1.47,.15-2.21,.01-.46,.17-.92-.02-1.39-.03-.07,.06-.19,.06-.28,0-.24,.01-.49-.03-.73-.08-.51-.19-1.02-.26-1.53-.06-.42-.08-.84,.04-1.25,.09-.31,.11-.63,.01-.95-.09-.31-.02-.58,.19-.82,.12-.15,.21-.33,.29-.51,.31-.71,.64-.93,1.42-.91,.07,0,.14,.02,.25,.04,.32,.46,.41,1.03,.62,1.55,.17,.43,.25,.9,.32,1.36,.09,.58,.18,1.18,.16,1.76-.03,.93,.07,1.87,0,2.8-.02,.24-.03,.49-.02,.73,0,.3,.18,.54,.47,.58,.44,.06,.88,.12,1.42,.05"/></g><g><path class="cls-3" d="M174.39,23.93c.42,0,.78,0,1.13,0,.77-.02,1.53-.05,2.3-.09,1.71-.09,3.41-.25,5.1-.58,.45-.09,.84-.21,1.08-.62,.04-.07,.1-.12,.13-.16,.66-.18,1.19,0,1.66,.42,.18,.16,.3,.34,.29,.6-.01,.28,0,.56-.05,.83-.05,.3-.16,.59-.26,.93-.18,.14-.39,.32-.62,.48-.57,.4-1.18,.71-1.9,.77-.76,.07-1.52,.18-2.29,.21-.57,.03-1.12,.1-1.67,.18-.91,.13-1.82,.27-2.74,.25-.48-.01-.97-.01-1.44,.17-.12,.37,.06,.66,.16,.97,.23,.7,.5,1.4,.67,2.11,.2,.84,.32,1.71,.45,2.57,.1,.68,.13,1.36,.02,2.06-.08,.47-.05,.97,.12,1.44,.06,.16,.09,.35,.08,.53-.04,1.03,.18,2.03,.36,3.04,.05,.28,.08,.56,.08,.83,0,1.28-.02,2.56-.06,3.83,0,.22-.09,.45-.17,.66-.21,.55-.47,1.08-.66,1.64-.33,.99-1.04,1.64-1.92,2.1-.58,.31-1.21,.52-1.9,.56-.58,.03-1.17,.15-1.73,.33-.6,.19-1.2,.2-1.82,.2-.2,0-.41-.01-.61,0-.15,0-.34,0-.45,.08-.46,.32-.98,.24-1.49,.25-.97,.02-1.92-.19-2.88-.32-.62-.08-1.21-.37-1.82-.58-.07-.02-.17-.06-.19-.12-.18-.47-.68-.57-1-.89-.14-.14-.33-.25-.46-.4-.27-.31-.54-.61-.9-.82-.2-.11-.37-.28-.32-.62,.09-.03,.19-.1,.31-.12,.97-.16,1.94-.03,2.91,.04,.12,.01,.26,.06,.36,.13,.38,.28,.81,.27,1.25,.27,.12,0,.29,0,.36-.08,.21-.21,.47-.18,.72-.19,1.46-.07,2.9-.27,4.33-.52,.25-.05,.5-.07,.76-.11,.15-.02,.31-.03,.45-.08,.73-.23,1.46-.47,2.18-.72,.24-.08,.48-.19,.7-.32,.55-.31,1-.71,1.15-1.36,.02-.08,.05-.14,.08-.21,.34-.84,.3-1.69,.11-2.56-.14-.62-.27-1.25-.22-1.9,.02-.28,.02-.56-.18-.8-.15-.17-.1-.38-.09-.59,.04-.92,.08-1.84,.1-2.76,0-.33-.05-.64-.18-.96-.19-.5-.34-1.02-.35-1.56-.02-.8-.19-1.57-.44-2.33-.09-.26-.18-.54-.23-.81-.11-.61-.28-1.19-.65-1.77-.27,0-.57-.03-.87-.02-1.02,.05-2.04,.1-3.06,.15-.18,0-.36,.02-.54,.02-1.18,0-2.34,.12-3.51,.25-.76,.08-1.53,.11-2.29,.2-1.09,.12-2.17,.29-3.26,.41-.73,.08-1.46,.21-2.21,.21-.82,0-1.64,0-2.45,.13-.78,.11-1.56,.31-2.3,.58-.58,.21-1.12,.32-1.72,.21-.05,0-.1,0-.17,.01-.13,.17-.25,.35-.41,.51-.14,.14-.31,.14-.49,.03-.27-.17-.46-.41-.61-.67-.18-.31-.15-.61,.14-.82,.3-.22,.53-.46,.59-.84,.04-.2,.19-.35,.37-.47,.93-.62,1.92-1.05,3.03-1.22,1.72-.26,3.43-.53,5.15-.77,1.44-.2,2.88-.42,4.33-.55,1.43-.12,2.85-.22,4.29-.26,.54-.01,1.07-.06,1.6-.13,1.04-.14,2.09-.12,3.14-.12,.28,0,.56,.05,.83-.08,.13-.2,.07-.41,.04-.6-.05-.35-.12-.71-.2-1.06-.03-.12-.05-.27-.13-.35-.43-.47-.46-1.07-.52-1.64-.04-.36-.13-.7-.3-1.02-.12-.22-.24-.45-.35-.68-.26-.58-.69-1-1.2-1.36-.15-.1-.32-.19-.43-.32-.47-.54-.92-1.09-1.38-1.64-.1-.12-.2-.22-.31-.34-.16-.16-.34-.32-.47-.5-.34-.44-.56-.97-1.05-1.29-.09-.06-.13-.21-.18-.33-.26-.69-.15-1.36,.14-2.01,.05-.11,.15-.21,.24-.3,.23-.23,.48-.45,.77-.72,.19,.02,.44,.04,.65,.06,.25,.24,.34,.5,.32,.79-.03,.33,.11,.58,.27,.85,.54,.93,1.17,1.79,1.92,2.57,.35,.37,.76,.68,1.14,1.02,.19,.17,.36,.35,.54,.53,.05,.06,.08,.13,.14,.18,.82,.65,1.11,1.63,1.56,2.52,.13,.27,.17,.58,.25,.88,.06,.22,.08,.46,.18,.66,.49,.97,.65,2.04,.89,3.08,.04,.2,.08,.4,.13,.68"/><path class="cls-3" d="M149.58,7.09c.16-.28,.31-.51,.59-.5,.6,.02,1.17-.17,1.73-.31,1.9-.5,3.83-.63,5.77-.63,2.71,.01,5.42,.03,8.13,.02,.69,0,1.38-.06,2.07-.09,.43-.02,.87-.05,1.3-.05,1.77-.01,3.53-.14,5.28-.38,1.12-.15,2.24-.11,3.37-.09,1.23,.02,2.45,.05,3.68,.04,.61,0,1.14,.24,1.68,.45,.23,.09,.34,.29,.41,.52,.29,1.03,.08,1.94-.69,2.67-1.02,.98-2.17,1.77-3.54,2.22-1.07,.36-2.14,.7-3.26,.8-.2,.02-.42,.07-.61,.01-.58-.17-1.17-.11-1.75-.14-.28-.01-.57-.04-.83-.12-.71-.24-1.44-.33-2.16-.49-.27-.06-.55-.13-.81-.21-.46-.15-.46-.15-.87-.62,.16-.15,.48,.03,.56-.29,.02-.06,.22-.11,.34-.12,1.09-.1,2.19-.19,3.28-.29,.31-.03,.6-.1,.91-.15,1.06-.15,2.13-.24,3.18-.47,.83-.19,1.61-.5,2.36-.89,.13-.07,.12-.08,.12-.42-.38,0-.76,.02-1.14,0-.49-.02-.97-.07-1.45-.11-1.03-.09-2.04,.06-3.05,.16-.84,.09-1.67,.21-2.5,.32-.76,.1-1.53,.07-2.3,.05-.74-.02-1.48,.04-2.21,.12-.28,.03-.58,.03-.84-.05-.56-.17-1.12-.03-1.68-.08-.03,0-.05,0-.08,0-.92,.43-1.91,.25-2.86,.31-.92,.05-1.84,.01-2.76-.03-1.33-.07-2.66,.03-3.98,.05-.05,0-.11,0-.16,0-.83,.27-1.72,.2-2.57,.35-.5,.09-.92-.13-1.28-.4-.47-.35-.88-.76-1.36-1.19"/></g><g><path class="cls-2" d="M101.18,43.1c-.15,.82,.06,1.58,.07,2.41,.79-.04,1.48-.07,2.17-.11,1.04-.06,2.09-.12,3.13-.18,.19-.01,.38-.01,.57,.02,.62,.11,1.23,.28,1.86,.35,.53,.06,1.08,.05,1.61-.02,1.33-.17,2.66-.19,3.99-.25,.19,0,.42,.05,.56-.03,.54-.32,.98,0,1.45,.16,.38,.12,.54,.42,.57,.79,.05,.54,.03,1.08-.39,1.59-.51,0-1.07,.04-1.63,.02-1.3-.05-2.59,.15-3.89,.25-.79,.06-1.57,.09-2.37-.03-1.16-.18-2.34-.12-3.51-.06-.98,.06-1.96,.09-2.95,.09-.59,0-.59-.03-1.15-.46-.04,1.84-.07,3.62-.11,5.48,.54,.15,1.09,.25,1.66,.18,.89-.1,1.77-.04,2.65,.06,.63,.06,1.26,.08,1.9,.07,1.84-.04,3.67,.06,5.51,.15,1.52,.08,3.04,.07,4.55-.16,.36-.05,.7-.25,1.14-.42,.1,.04,.3,.12,.52,.21v1.96c-.37,.07-.73,.15-1.09,.2-1,.13-1.98,.27-3.02,.11-1.47-.22-2.96-.3-4.46-.21-.5,.03-1.01,.11-1.51,.15-1.37,.12-2.72-.13-4.08-.22-.47-.03-.94-.09-1.42-.11-1.01-.05-2.02-.08-3.03-.12-.25-.01-.43,.05-.58,.25-.07,.11-.15,.2-.19,.26-.27-.03-.5-.06-.71-.08-.7-.74-.84-1.64-.8-2.64,.06-1.42,.07-2.85,.05-4.28-.01-1.08-.1-2.15-.16-3.23,0-.19-.04-.38-.03-.57,.04-.83-.06-1.65-.24-2.45-.09-.44-.1-.87-.09-1.32,.01-1.14-.03-2.28-.04-3.42,0-.57-.08-1.13,.13-1.69,.08-.22,.04-.5,.01-.75-.08-.67,0-1.31,.25-1.95,.43-1.1,.66-2.25,.63-3.44,0-.03,0-.06,0-.09-.2-1.29,.39-2.19,1.45-2.83,.03-.11,.09-.21,.06-.29-.12-.46,.07-.75,.48-.9,.71-.25,1.44-.5,2.17-.7,1.35-.38,2.74-.51,4.13-.65,2.11-.21,4.21-.46,6.32-.71,.6-.07,1.19-.2,1.78-.31,.89-.16,1.45,.27,1.86,.99,.38,.67,.63,1.38,.79,2.13,.25,1.21,.55,2.41,.7,3.63,.18,1.45,.22,2.91-.04,4.36-.1,.54-.11,1.07,.03,1.61,.28,1.07,.1,2.14,.03,3.22,0,.15-.05,.32-.14,.45-.38,.58-.86,1.09-1.1,1.76-.33,.19-.63,.46-.98,.56-.97,.28-1.9,.73-2.93,.75-.41,0-.82,.07-1.23,.08-1.3,.03-2.6,.01-3.9,.09-1.48,.09-2.98,.06-4.45,.32-.65,.11-1.32,.13-1.98-.04-.17-.04-.37,0-.6,0m14.01-16.37c-.27,0-.43-.04-.58,0-.77,.24-1.57,.15-2.36,.21-.66,.05-1.32,.12-1.98,.18-.88,.08-1.76,.17-2.64,.24-1.04,.07-2.09,.07-3.12,.19-1.06,.13-2.12,.32-3.2,.24-.02,0-.05,.03-.09,.06,0,.36,0,.74,0,1.1-.01,.51,.03,1.03-.08,1.51-.26,1.16-.34,2.31-.1,3.48,.05,.24,.03,.51,0,.76-.07,.66-.17,1.32-.23,1.98-.07,.88-.13,1.77-.16,2.65-.01,.37,.13,.51,.46,.63,.25,.08,.48,.09,.74,0,.23-.09,.48-.17,.72-.18,1.01-.03,2.01-.19,3.02-.18,1.68,.01,3.35-.06,5.03-.14,1.43-.07,2.82-.39,4.19-.79,.24-.07,.47-.17,.72-.27,.03-.46,.02-.9,.1-1.33,.33-1.75,.4-3.52,.29-5.3-.02-.35,.02-.71-.07-1.04-.27-.99-.29-2-.45-3-.05-.31-.13-.61-.22-1"/><path class="cls-2" d="M97.95,25.65c-.46-.77-.48-.79-1.26-.95-.22-.04-.44-.05-.66-.08-.26-.03-.48-.14-.67-.44,.04-.13,.07-.31,.15-.47,.27-.5,.55-1,.84-1.49,.3-.52,.63-1.02,.92-1.55,.62-1.15,1.2-2.3,1.82-3.45,.21-.39,.48-.75,.71-1.12,.44-.7,.76-1.46,1.04-2.24,.45-1.26,.98-2.47,1.72-3.59,.1-.16,.19-.33,.26-.51,.15-.39,.1-.52-.3-.74-.05-.03-.12-.04-.17-.08-.21-.14-.21-.44,0-.54,.17-.08,.36-.12,.53-.2,.26-.12,.36-.35,.29-.63-.02-.09-.04-.19-.1-.26-.25-.33-.24-.71-.26-1.09-.01-.28-.03-.57-.07-.85-.03-.18-.12-.36-.18-.54-.02-.06-.01-.13,0-.19,.06-.25,.13-.49,.21-.75,.44-.21,.89-.42,1.32-.66,.13-.07,.27-.23,.29-.36,.08-.56,.41-1.06,.34-1.66-.03-.24,.07-.5,.16-.73,.15-.36,.58-.55,.95-.44,.62,.19,1.13,.5,1.4,1.17,.23,.57,.4,1.13,.45,1.74,.01,.16,0,.33,.04,.47,.31,.88,.18,1.75-.06,2.62-.08,.31-.14,.61-.04,.97,.28,.11,.58,.21,.86,.34,.6,.27,1.22,.52,1.8,.84,1.44,.8,2.78,1.76,4.03,2.84,.6,.52,1.13,1.1,1.35,1.9,.08,.3,.23,.59,.36,.94-.09,.13-.19,.27-.29,.42-.12,0-.23,.01-.3-.02-.48-.24-.97-.24-1.48-.16-.82,.12-1.57-.07-2.24-.57-.41-.3-.8-.64-1.33-.69-.37-.41-.91-.55-1.36-.84-.74-.48-1.5-.91-2.3-1.39-.09,.11-.22,.21-.27,.34-.29,.71-.71,1.34-1.15,1.96-.2,.28-.34,.61-.44,.93-.46,1.5-1.12,2.88-1.96,4.21-.62,.99-1.09,2.07-1.64,3.11-.46,.87-.9,1.75-1.4,2.59-.45,.77-1.02,1.45-1.92,1.89"/><g><path class="cls-2" d="M132.22,42.58c-.25,.14-.46,.23-.62,.36-1.23,.92-2.67,1.38-4.09,1.9-.71,.26-1.45,.43-2.08,.89-.13,.1-.33,.14-.51,.14-1.15,0-2.29,.02-3.44,.12-.9,.08-1.74-.29-2.5-.91,.09-.16,.15-.34,.27-.46,.49-.48,1.03-.89,1.67-1.16,.53-.23,1.05-.48,1.59-.68,1.11-.42,2.23-.8,3.34-1.24,1.04-.41,2.08-.82,3.07-1.31,.78-.38,1.37-1.02,2.08-1.62-.39-1.09-.78-2.16-1.17-3.23-.44-1.22-.88-2.43-1.33-3.65-.23-.6-.48-1.2-.74-1.79-.59-1.32,.45-2.71,1.59-3.07,.3-.09,.57-.05,.78,.19,.17,.19,.34,.38,.48,.59,1.05,1.68,2.03,3.39,2.68,5.28,.25,.75,.6,1.46,.92,2.18,.16,.36,.43,.47,.8,.28,1.12-.58,2.22-1.18,3.05-2.18,.3-.37,.66-.65,1.05-.91,.54-.35,1.08-.72,1.52-1.19,.97-1.03,2.06-1.53,3.51-1.1,.41,.51,.33,1.06,0,1.58-.42,.67-.9,1.3-1.35,1.95-.14,.2-.3,.41-.38,.64-.29,.8-.91,1.27-1.61,1.66-1.19,.67-2.35,1.38-3.24,2.44-.11,.13-.29,.2-.45,.27-.19,.09-.41,.13-.59,.24-.77,.5-.9,.9-.49,1.72,.67,1.35,1.32,2.73,2.56,3.69,.06,.04,.11,.1,.15,.16,.78,1.17,1.96,1.88,3.09,2.64,1.25,.85,2.5,1.69,3.63,2.7,.67,.61,1.25,1.29,1.78,2.02,.15,.2,.28,.43,.37,.66,.38,1,.13,1.51-.76,1.74-.35,.09-.69,.21-1.04,.28-.54,.09-1.03,.2-1.49,.54-.51,.37-.79,.34-1.22-.16-1-1.16-2.32-1.93-3.48-2.89-.56-.46-1.07-.94-1.55-1.48-.54-.63-1.08-1.25-1.58-1.91-.15-.2-.31-.41-.51-.56-.75-.56-1.45-1.17-1.9-2.02-.06-.11-.21-.21-.34-.25-.63-.2-.79-.66-.78-1.26,.02-.67-.2-1.26-.74-1.84"/><path class="cls-2" d="M132.09,15.97c.52,.27,.93,.2,1.31,.18,1.91-.08,3.81-.05,5.71,.15,1.03,.11,2.08,.05,3.13,.04,.84-.01,1.65,.06,2.39,.51,.27,.16,.68,.03,.85,.45-.94,.5-1.88,1-2.84,1.49-.85,.44-1.75,.59-2.71,.6-4.28,.07-8.56,.14-12.84,.23-1.94,.04-3.88,.02-5.82,0-.73,0-1.42-.13-2.1-.3-.61-.15-1.06-.57-1.38-1.12-.02-.03-.03-.07-.04-.1-.21-.76,.33-1.22,.71-1.71,.28-.36,.75-.45,1.18-.24,.28,.14,.52,.21,.81,.08,.3-.13,.59-.25,.75-.58,.08-.15,.2-.28,.33-.48,.31,.17,.57,.34,.85,.46,.25,.12,.57,.13,.79,.28,.32,.21,.66,.27,1.02,.26,.83-.02,1.65-.06,2.48-.08,.47,0,.93,.02,1.4,.02,.21,0,.41-.04,.64-.06,0-.26,.02-.47,0-.68-.1-.89-.17-1.79-.34-2.67-.26-1.34-.02-2.74-.41-4.06-.21-.7-.25-1.41-.24-2.13,0-.11-.01-.22,0-.32,.06-.64,.33-.83,.93-.65,.38,.11,.74,.24,1.18,.38,.11-.15,.21-.3,.35-.5,.26,.15,.49,.29,.7,.41-.28,1-.26,.99,.05,1.93,.38,1.16,.53,2.38,.66,3.59,.08,.75,.1,1.51,.18,2.26,.08,.78,.21,1.56,.32,2.34"/><path class="cls-2" d="M121.56,20.6c.59-.18,1.14-.31,1.76,.01,.33,.18,.76,.14,1.11,.19,.42,.37,.54,.8,.52,1.29-.02,.54,0,1.07-.01,1.61,0,.17-.02,.37-.08,.52-.32,.83-.66,1.66-1,2.49-.01,.03-.02,.06-.04,.1-.49,1.09-1.07,1.31-2.14,.83-.06-.03-.13-.06-.18-.11-.45-.52-.88-1.05-.83-1.8,.02-.32,.09-.63,.16-.95,.12-.56,.22-1.1,.13-1.7-.06-.44,.06-.92,.16-1.37,.09-.38,.28-.73,.43-1.11"/><path class="cls-2" d="M140.41,28.99c-.52,.23-.7,.23-.89-.02-.12-.17-.27-.36-.31-.56-.12-.61-.52-1.02-.96-1.39-.78-.67-1.28-1.55-1.85-2.38-.72-1.05,.05-2.2,.87-2.62,.47-.25,1.11-.02,1.37,.5,.43,.87,.81,1.76,1.22,2.64,.01,.03,.01,.07,.03,.1,.58,1.17,.66,2.41,.52,3.74"/></g><path class="cls-2" d="M111.09,44.89c.15,0,.29-.01,.44-.03,.35-.03,.69-.05,1.03-.11,.76-.13,1.51-.12,2.27,.02,.06,0,.11,.06,.17,.09,.01,.23-.18,.23-.31,.23-.54,0-1.08-.02-1.62-.04-.66-.02-1.32-.04-1.97-.07v-.11Z"/><path class="cls-2" d="M101.71,32.33c.14-.01,.23-.02,.32-.03,2.38-.42,4.79-.32,7.19-.41,.66-.03,1.33-.04,1.99-.04,.35,0,.7,0,1.04,.04,.51,.07,.7,.4,.54,.88-.24,.73-.82,1-1.5,1.12-.28,.05-.57,0-.85,0-1.77-.05-3.54-.12-5.31-.15-.79-.02-1.58,.03-2.37,.05-.09,0-.19,.01-.28,0-.41-.02-.73-.17-.95-.54-.2-.34-.01-.6,.17-.93"/></g><g><path class="cls-1" d="M185.49,63.71c-.42-.51-.81-.97-1.2-1.44-.16-.09-.33-.11-.52-.11-.24,0-.32-.2-.28-.39-.02-.15-.04-.28-.06-.42-.33,.07-.6-.03-.91,.19-.25,.18-.62-.05-.94-.17-.2-.08-.48,.05-.84,.11-.02,.02-.15,.14-.19,.19-.28-.05-.56-.2-.7-.11-.77,.49-1.7,.38-2.5,.75-.25,.11-.6,0-.87,0-.17-.17-.32-.33-.46-.47,0-.02,.02-.04,.03-.05-.1-.08-.15-.2-.15-.32-.05-.02-.09-.04-.15-.05,.04-.02,.07-.04,.11-.05-.05-.05-.09-.12-.09-.21-.02-.24-.09-.45-.16-.68,0-.02,0-.03,0-.05-.21-.09-.35-.23-.51-.44-.26-.35-.64-.52-1.04-.66-.06,.09-.13,.18-.19,.26-.4-.21-.75-.39-1.1-.58-.05,.04-.12,.11-.11,.1-.38-.08-.69-.15-.97-.21-.04-.13-.08-.23-.07-.23-.3,.02-.58,.12-.72,.03-.53-.35-1.18,.03-1.7-.32-.52,.27-1.15,.11-1.67,.52-.27,.22-.75,.15-1.14,.23-.06,0-.11,.07-.14,.09-.03,.11-.05,.2-.07,.29-.19,0-.35,0-.51,0-.18-.9-.34-1.01-2.39-1.77-.26,.04-.41,.07-.56,.11-.04,.07-.09,.12-.13,.18-.02-.02-.04-.05-.07-.07,.06-.05,.12-.09,.17-.14,.01,.01,.03,.03,.03,.03-.03-.07-.05-.18-.08-.18-1.09-.06-2.18-.22-3.2,.3-.07-.07-.12-.12-.23-.22-.19,.44-.36,.85-.52,1.22-.39,.2-.76,.37-1.12,.56-.03,.08-.06,.15-.07,.23,0,.01,0,.02,0,.03,.06,.05,.12,.09,.19,.14,.01,0,.02,0,.03,.01,.11,.09,.2,.19,.24,.32,.04,.13,.02,.26,.03,.39,0,.01,0,.03,0,.04,.05,.08,.1,.16,.14,.24,.61,1.08,1.03,2.24,1.55,3.36,.13,.03,.25,.1,.34,.21,.02,.02,.02,.06,0,.08l-.13,.13c.07,.14,.14,.28,.21,.41,.42,.76,.91,1.49,1.54,2.09,.06,.06,.13,.11,.19,.17,.15-.04,.3-.07,.46-.06,.04,0,.07,.04,.06,.08-.03,.13-.02,.27-.02,.4,.11,.09,.22,.18,.33,.27,.21,.17,.43,.36,.68,.47,.76,.31,1.58,.12,2.36,.19,.33,.03,.64,.1,.87,.36,.23,.28,.41,.65,.78,.77,.83,.27,1.67-.32,2.51-.07,.48,.15,.79,.57,1.18,.84,.46,.02,.93-.11,1.34,.26,.19-.17,.37-.32,.56-.49,.96,.01,1.92,.02,2.89,.03,.02,0,.04-.04,.05-.07-.03-.04-.06-.07-.08-.09,.07-.19,.14-.36,.21-.54,.22,.16,.32,.24,.39,.3,.38-.2,.74-.48,1.14-.56,.41-.08,.72-.26,1.05-.49,.32-.22,.76-.22,1.01-.59,.05-.08,.16-.16,.24-.16,.62,.02,.93-.45,1.36-.77,.44-.32,.89-.68,1.32-.67,.55-.32,.97-.57,1.39-.81,.73-.42,1.57-.59,2.24-1.12,.18-.15,.32-.3,.6-.33,.37-.04,.61-.33,.69-.78-.71,0-1.36-.01-1.94-.02Zm-20.53,1.49c-.08,0-.13,.05-.17,.11-.02-.02-.04-.04-.07-.07,.06-.05,.12-.09,.17-.14,.01,.01,.03,.03,.04,.04,.1-.25,.2-.53,.67-.35-.26,.17-.45,.29-.65,.41Zm1.86,1.24c-.03-.18-.05-.27-.07-.4,.13-.03,.24-.05,.59-.12-.26,.26-.36,.37-.52,.52Zm8.17-2.92c.32-.15,.5-.24,.72-.34,.02,.1,.03,.19,.07,.41-.29-.03-.48-.04-.79-.07Z"/><path class="cls-1" d="M174.5,64.77h-.13c0-.14,0-.27,0-.4,.04,0,.09,0,.13,0,0,.13,0,.26,0,.39Z"/><path class="cls-1" d="M174.85,68.73h-.13c0-.13,0-.26,0-.4,.05,0,.09,0,.13,0,0,.13,0,.26,0,.39Z"/><path class="cls-1" d="M175.07,64.22c.11-.09,.22-.18,.33-.27,.03,.02,.05,.05,.08,.08,.01-.18,.1-.29,.2-.39,.04,.04,.08,.08,.12,.13-.11,.09-.22,.18-.33,.27-.02-.02-.05-.05-.08-.08-.01,.18-.11,.29-.2,.39-.04-.04-.08-.08-.12-.12Z"/><path class="cls-1" d="M176.49,63.61s-.09,0-.13,0c0-.13,0-.26,0-.4,.04,0,.09,0,.13,0,0,.13,0,.26,0,.39Z"/></g></g></svg>